<?xml version="1.0" encoding="UTF-8" standalone="no"?>
<!-- Created with Inkscape (http://www.inkscape.org/) -->

<svg
   xmlns:dc="http://purl.org/dc/elements/1.1/"
   xmlns:cc="http://creativecommons.org/ns#"
   xmlns:rdf="http://www.w3.org/1999/02/22-rdf-syntax-ns#"
   xmlns:svg="http://www.w3.org/2000/svg"
   xmlns="http://www.w3.org/2000/svg"
   xmlns:sodipodi="http://sodipodi.sourceforge.net/DTD/sodipodi-0.dtd"
   xmlns:inkscape="http://www.inkscape.org/namespaces/inkscape"
   width="48px"
   height="48px"
   id="svg5108"
   version="1.1"
   inkscape:version="0.48.4 r9939"
   sodipodi:docname="missile.svg">
  <defs
     id="defs5110" />
  <sodipodi:namedview
     id="base"
     pagecolor="#ffffff"
     bordercolor="#666666"
     borderopacity="1.0"
     inkscape:pageopacity="0.0"
     inkscape:pageshadow="2"
     inkscape:zoom="8"
     inkscape:cx="40.070525"
     inkscape:cy="25.264519"
     inkscape:current-layer="layer1"
     showgrid="true"
     inkscape:grid-bbox="true"
     inkscape:document-units="px"
     inkscape:object-nodes="true"
     inkscape:snap-bbox="true"
     inkscape:snap-grids="true"
     inkscape:snap-to-guides="true"
     inkscape:snap-page="true"
     inkscape:window-width="1366"
     inkscape:window-height="719"
     inkscape:window-x="0"
     inkscape:window-y="25"
     inkscape:window-maximized="1">
    <inkscape:grid
       type="xygrid"
       id="grid5120"
       empspacing="2"
       visible="true"
       enabled="true"
       snapvisiblegridlinesonly="true"
       units="px" />
  </sodipodi:namedview>
  <metadata
     id="metadata5113">
    <rdf:RDF>
      <cc:Work
         rdf:about="">
        <dc:format>image/svg+xml</dc:format>
        <dc:type
           rdf:resource="http://purl.org/dc/dcmitype/StillImage" />
        <dc:title></dc:title>
      </cc:Work>
    </rdf:RDF>
  </metadata>
  <g
     id="layer1"
     inkscape:label="Layer 1"
     inkscape:groupmode="layer">
    <path
       style="fill:#ffffff;stroke:none"
       d="m 27.130434,35.47826 c 0,0 -14.402648,-8.393509 -18.782608,-14.608695 C 3.9678654,14.654379 0,0 0,0 0,0 14.654379,3.9678654 20.869565,8.347826 27.084751,12.727786 35.47826,27.130434 35.47826,27.130434 z"
       id="path5122"
       inkscape:connector-curvature="0"
       sodipodi:nodetypes="czczcc" />
    <path
       style="fill:#ffffff;stroke:none"
       d="m 19.826087,30.260868 c 0,0 -2.517118,5.833626 -1.043479,9.391305 C 20.256249,43.209853 27.130434,48 27.130434,48 l 0,-12.52174 z"
       id="path5124"
       inkscape:connector-curvature="0"
       sodipodi:nodetypes="czccc" />
    <path
       sodipodi:nodetypes="czccc"
       inkscape:connector-curvature="0"
       id="path5126"
       d="m 30.260868,19.826087 c 0,0 5.833626,-2.517118 9.391305,-1.043479 C 43.209853,20.256249 48,27.130434 48,27.130434 l -12.52174,0 z"
       style="fill:#ffffff;stroke:none" />
    <path
       sodipodi:nodetypes="czczcc"
       inkscape:connector-curvature="0"
       id="path5636"
       d="m 31.304347,35.47826 c 0,0 -2.041272,3.967866 4.173913,8.347828 6.215187,4.379958 10.434783,2.086955 10.434783,2.086955 0,0 2.293003,-4.219596 -2.086955,-10.434783 -4.379962,-6.215185 -8.347828,-4.173913 -8.347828,-4.173913 z"
       style="fill:#ffffff;stroke:none" />
  </g>
</svg>
