<?xml version="1.0" encoding="UTF-8" standalone="no"?>
<!-- Created with Inkscape (http://www.inkscape.org/) -->

<svg
   xmlns:dc="http://purl.org/dc/elements/1.1/"
   xmlns:cc="http://creativecommons.org/ns#"
   xmlns:rdf="http://www.w3.org/1999/02/22-rdf-syntax-ns#"
   xmlns:svg="http://www.w3.org/2000/svg"
   xmlns="http://www.w3.org/2000/svg"
   xmlns:sodipodi="http://sodipodi.sourceforge.net/DTD/sodipodi-0.dtd"
   xmlns:inkscape="http://www.inkscape.org/namespaces/inkscape"
   width="48px"
   height="48px"
   id="svg6831"
   version="1.1"
   inkscape:version="0.91 r13725"
   sodipodi:docname="btn-repair.svg">
  <defs
     id="defs6833" />
  <sodipodi:namedview
     id="base"
     pagecolor="#ffffff"
     bordercolor="#666666"
     borderopacity="1.0"
     inkscape:pageopacity="0.0"
     inkscape:pageshadow="2"
     inkscape:zoom="9.8994949"
     inkscape:cx="29.631622"
     inkscape:cy="29.446202"
     inkscape:current-layer="layer1"
     showgrid="true"
     inkscape:grid-bbox="true"
     inkscape:document-units="px"
     inkscape:window-width="1233"
     inkscape:window-height="755"
     inkscape:window-x="47"
     inkscape:window-y="1"
     inkscape:window-maximized="1">
    <inkscape:grid
       type="xygrid"
       id="grid6839"
       empspacing="2"
       visible="true"
       enabled="true"
       snapvisiblegridlinesonly="true" />
  </sodipodi:namedview>
  <metadata
     id="metadata6836">
    <rdf:RDF>
      <cc:Work
         rdf:about="">
        <dc:format>image/svg+xml</dc:format>
        <dc:type
           rdf:resource="http://purl.org/dc/dcmitype/StillImage" />
        <dc:title></dc:title>
      </cc:Work>
    </rdf:RDF>
  </metadata>
  <g
     id="layer1"
     inkscape:label="Layer 1"
     inkscape:groupmode="layer">
    <g
       id="g8041"
       transform="matrix(1.6300366,0,0,1.6300366,-14.42004,-10.529705)"
       style="fill:#ffffff">
      <g
         transform="matrix(0.32218615,0.32218615,-0.32218615,0.32218615,32.456286,3.9923764)"
         id="g8035"
         style="fill:#ffffff">
        <path
           style="opacity:1;fill:#ffffff;stroke:none;stroke-width:7;stroke-miterlimit:4;stroke-dasharray:none;stroke-opacity:1"
           d="m 24,15 c 0,4.970563 -4.029437,9 -9,9 -4.970563,0 -9,-4.029437 -9,-9 0,-2.5 1,-6.1692898 2,-7.2942898 1,-1.125 2,-1.625 2,-1.625 l 0,7.9999998 c 0,0 3.204945,2 5,2 1.795055,0 5,-2 5,-2 l 0,-7.9999998 c 0,0 1,0.5 2,1.625 C 23,8.8307102 24,12.5 24,15 Z"
           id="path6516"
           inkscape:connector-curvature="0"
           sodipodi:nodetypes="sssscczccss" />
        <path
           style="opacity:1;fill:#ffffff;stroke:none;stroke-width:7;stroke-miterlimit:4;stroke-dasharray:none;stroke-opacity:1"
           d="m 10,21 10,0 0,48 c 0,0 -2.939135,1.515229 -5,1.515229 C 12.939135,70.515229 10,69 10,69 Z"
           id="rect6519"
           inkscape:connector-curvature="0"
           sodipodi:nodetypes="ccczcc" />
      </g>
      <path
         sodipodi:nodetypes="cccccccccccccccccccccccc"
         inkscape:connector-curvature="0"
         id="path8039"
         d="m 33.758846,33.589886 3.599784,-3.599784 -9.899495,-9.899495 -0.707107,0.707107 -8.485281,-8.485281 4.949747,-2.121321 -1.414214,-1.4142127 -4.949747,2.1213197 -4.949747,4.949748 0,1.414213 -0.707107,0.707107 -0.707107,-0.707107 -0.707107,0.707107 3.535534,3.535534 0.707107,-0.707107 -0.707107,-0.707107 0.707107,-0.707107 1.414213,0 1.414214,-1.414213 0,-1.414214 0.6285,-0.785713 7.149675,7.149674 -0.771357,0.771357 z"
         style="fill:#ffffff;fill-opacity:1;fill-rule:evenodd;stroke:none;stroke-width:1px;stroke-linecap:butt;stroke-linejoin:miter;stroke-opacity:1" />
    </g>
  </g>
</svg>
