<?xml version="1.0" encoding="UTF-8" standalone="no"?>
<!-- Created with Inkscape (http://www.inkscape.org/) -->

<svg
   xmlns:dc="http://purl.org/dc/elements/1.1/"
   xmlns:cc="http://creativecommons.org/ns#"
   xmlns:rdf="http://www.w3.org/1999/02/22-rdf-syntax-ns#"
   xmlns:svg="http://www.w3.org/2000/svg"
   xmlns="http://www.w3.org/2000/svg"
   xmlns:sodipodi="http://sodipodi.sourceforge.net/DTD/sodipodi-0.dtd"
   xmlns:inkscape="http://www.inkscape.org/namespaces/inkscape"
   width="48px"
   height="48px"
   id="svg5712"
   version="1.1"
   inkscape:version="0.48.4 r9939"
   sodipodi:docname="New document 37">
  <defs
     id="defs5714" />
  <sodipodi:namedview
     id="base"
     pagecolor="#ffffff"
     bordercolor="#666666"
     borderopacity="1.0"
     inkscape:pageopacity="0.0"
     inkscape:pageshadow="2"
     inkscape:zoom="7"
     inkscape:cx="-1"
     inkscape:cy="24"
     inkscape:current-layer="layer1"
     showgrid="true"
     inkscape:grid-bbox="true"
     inkscape:document-units="px"
     inkscape:snap-center="true"
     inkscape:window-width="1366"
     inkscape:window-height="719"
     inkscape:window-x="0"
     inkscape:window-y="25"
     inkscape:window-maximized="1">
    <inkscape:grid
       type="xygrid"
       id="grid5720"
       empspacing="2"
       visible="true"
       enabled="true"
       snapvisiblegridlinesonly="true" />
  </sodipodi:namedview>
  <metadata
     id="metadata5717">
    <rdf:RDF>
      <cc:Work
         rdf:about="">
        <dc:format>image/svg+xml</dc:format>
        <dc:type
           rdf:resource="http://purl.org/dc/dcmitype/StillImage" />
        <dc:title></dc:title>
      </cc:Work>
    </rdf:RDF>
  </metadata>
  <g
     id="layer1"
     inkscape:label="Layer 1"
     inkscape:groupmode="layer">
    <path
       sodipodi:type="arc"
       style="fill:#ffffff;fill-opacity:1;stroke:none"
       id="path5722"
       sodipodi:cx="12"
       sodipodi:cy="13"
       sodipodi:rx="4"
       sodipodi:ry="5"
       d="m 16,13 a 4,5 0 1 1 -8,0 4,5 0 1 1 8,0 z"
       transform="matrix(1.25,0,0,1,-9,29)" />
    <path
       style="fill:#ffffff;fill-opacity:1;stroke:none"
       d="M 8,36 46.384776,1.6152235 12,40 C 12,40 11.843905,38.421069 10.711418,37.288583 9.5789305,36.156095 8,36 8,36 z"
       id="path5724"
       inkscape:connector-curvature="0"
       sodipodi:nodetypes="ccczc" />
    <path
       transform="matrix(0.81130441,0,0,0.64904353,-5.7356529,17.562434)"
       d="m 16,13 a 4,5 0 1 1 -8,0 4,5 0 1 1 8,0 z"
       sodipodi:ry="5"
       sodipodi:rx="4"
       sodipodi:cy="13"
       sodipodi:cx="12"
       id="path6234"
       style="fill:#ffffff;fill-opacity:1;stroke:none"
       sodipodi:type="arc" />
    <path
       sodipodi:nodetypes="ccczc"
       inkscape:connector-curvature="0"
       id="path6236"
       d="M 5.2980871,22.105739 30.211477,-0.21147829 7.8942612,24.701913 c 0,0 -0.1013124,-1.024795 -0.8363458,-1.759828 C 6.3228817,22.207051 5.2980871,22.105739 5.2980871,22.105739 z"
       style="fill:#ffffff;fill-opacity:1;stroke:none" />
    <path
       sodipodi:type="arc"
       style="fill:#ffffff;fill-opacity:1;stroke:none"
       id="path6257"
       sodipodi:cx="12"
       sodipodi:cy="13"
       sodipodi:rx="4"
       sodipodi:ry="5"
       d="m 16,13 a 4,5 0 1 1 -8,0 4,5 0 1 1 8,0 z"
       transform="matrix(0.81130441,0,0,0.64904353,12.264347,35.562434)" />
    <path
       style="fill:#ffffff;fill-opacity:1;stroke:none"
       d="M 23.298087,40.105739 48.211477,17.788522 25.894261,42.701913 c 0,0 -0.101312,-1.024795 -0.836346,-1.759828 -0.735033,-0.735034 -1.759828,-0.836346 -1.759828,-0.836346 z"
       id="path6259"
       inkscape:connector-curvature="0"
       sodipodi:nodetypes="ccczc" />
  </g>
</svg>
