<?xml version="1.0" encoding="UTF-8" standalone="no"?>
<!-- Created with Inkscape (http://www.inkscape.org/) -->

<svg
   xmlns:dc="http://purl.org/dc/elements/1.1/"
   xmlns:cc="http://creativecommons.org/ns#"
   xmlns:rdf="http://www.w3.org/1999/02/22-rdf-syntax-ns#"
   xmlns:svg="http://www.w3.org/2000/svg"
   xmlns="http://www.w3.org/2000/svg"
   xmlns:sodipodi="http://sodipodi.sourceforge.net/DTD/sodipodi-0.dtd"
   xmlns:inkscape="http://www.inkscape.org/namespaces/inkscape"
   width="40"
   height="40"
   id="svg2"
   version="1.1"
   inkscape:version="0.48.4 r9939"
   sodipodi:docname="wpn1.svg">
  <defs
     id="defs4" />
  <sodipodi:namedview
     id="base"
     pagecolor="#ffffff"
     bordercolor="#666666"
     borderopacity="1.0"
     inkscape:pageopacity="0.0"
     inkscape:pageshadow="2"
     inkscape:zoom="7.9195959"
     inkscape:cx="-22.878978"
     inkscape:cy="23.835622"
     inkscape:document-units="px"
     inkscape:current-layer="layer1"
     showgrid="true"
     inkscape:window-width="1366"
     inkscape:window-height="719"
     inkscape:window-x="0"
     inkscape:window-y="25"
     inkscape:window-maximized="1"
     inkscape:snap-center="true">
    <inkscape:grid
       type="xygrid"
       id="grid2991"
       empspacing="5"
       visible="true"
       enabled="true"
       snapvisiblegridlinesonly="true" />
  </sodipodi:namedview>
  <metadata
     id="metadata7">
    <rdf:RDF>
      <cc:Work
         rdf:about="">
        <dc:format>image/svg+xml</dc:format>
        <dc:type
           rdf:resource="http://purl.org/dc/dcmitype/StillImage" />
        <dc:title />
      </cc:Work>
    </rdf:RDF>
  </metadata>
  <g
     inkscape:label="Layer 1"
     inkscape:groupmode="layer"
     id="layer1"
     transform="translate(0,-1012.3622)">
    <path
       sodipodi:type="arc"
       style="fill:#ff2a2a;fill-opacity:1;stroke:none"
       id="path5526"
       sodipodi:cx="17.5"
       sodipodi:cy="22.5"
       sodipodi:rx="12.5"
       sodipodi:ry="12.5"
       d="M 30,22.5 C 30,29.403559 24.403559,35 17.5,35 10.596441,35 5,29.403559 5,22.5 5,15.596441 10.596441,10 17.5,10 24.403559,10 30,15.596441 30,22.5 z"
       transform="translate(2.5,1014.8622)" />
    <path
       transform="matrix(0.6,0,0,0.6,9.5,1023.8622)"
       d="M 30,22.5 C 30,29.403559 24.403559,35 17.5,35 10.596441,35 5,29.403559 5,22.5 5,15.596441 10.596441,10 17.5,10 24.403559,10 30,15.596441 30,22.5 z"
       sodipodi:ry="12.5"
       sodipodi:rx="12.5"
       sodipodi:cy="22.5"
       sodipodi:cx="17.5"
       id="path5528"
       style="fill:#ff5555;fill-opacity:1;stroke:none"
       sodipodi:type="arc" />
    <rect
       style="fill:#1a1a1a;fill-opacity:1;stroke:none"
       id="rect5530"
       width="5"
       height="15"
       x="17.5"
       y="1012.8622" />
    <rect
       style="fill:#808080;fill-opacity:1;stroke:none"
       id="rect5532"
       width="5"
       height="5"
       x="20"
       y="25"
       transform="translate(0,1012.3622)" />
    <path
       sodipodi:type="arc"
       style="fill:#666666;fill-opacity:1;stroke:none"
       id="path5534"
       sodipodi:cx="17.5"
       sodipodi:cy="27.5"
       sodipodi:rx="2.5"
       sodipodi:ry="2.5"
       d="M 20,27.5 C 20,28.880712 18.880712,30 17.5,30 16.119288,30 15,28.880712 15,27.5 15,26.119288 16.119288,25 17.5,25 c 1.380712,0 2.5,1.119288 2.5,2.5 z"
       transform="translate(-2.5,1009.8622)" />
  </g>
</svg>
