<?xml version="1.0" encoding="UTF-8" standalone="no"?>
<!-- Created with Inkscape (http://www.inkscape.org/) -->

<svg
   xmlns:dc="http://purl.org/dc/elements/1.1/"
   xmlns:cc="http://creativecommons.org/ns#"
   xmlns:rdf="http://www.w3.org/1999/02/22-rdf-syntax-ns#"
   xmlns:svg="http://www.w3.org/2000/svg"
   xmlns="http://www.w3.org/2000/svg"
   xmlns:sodipodi="http://sodipodi.sourceforge.net/DTD/sodipodi-0.dtd"
   xmlns:inkscape="http://www.inkscape.org/namespaces/inkscape"
   width="40"
   height="40"
   id="svg6772"
   version="1.1"
   inkscape:version="0.48.4 r9939"
   sodipodi:docname="wall1.svg">
  <defs
     id="defs6774" />
  <sodipodi:namedview
     id="base"
     pagecolor="#ffffff"
     bordercolor="#666666"
     borderopacity="1.0"
     inkscape:pageopacity="0.0"
     inkscape:pageshadow="2"
     inkscape:zoom="9.8994949"
     inkscape:cx="15.361545"
     inkscape:cy="19.779174"
     inkscape:current-layer="layer1"
     showgrid="true"
     inkscape:grid-bbox="true"
     inkscape:document-units="px"
     inkscape:window-width="1366"
     inkscape:window-height="719"
     inkscape:window-x="0"
     inkscape:window-y="25"
     inkscape:window-maximized="1">
    <inkscape:grid
       type="xygrid"
       id="grid6780"
       empspacing="5"
       visible="true"
       enabled="true"
       snapvisiblegridlinesonly="true" />
  </sodipodi:namedview>
  <metadata
     id="metadata6777">
    <rdf:RDF>
      <cc:Work
         rdf:about="">
        <dc:format>image/svg+xml</dc:format>
        <dc:type
           rdf:resource="http://purl.org/dc/dcmitype/StillImage" />
      </cc:Work>
    </rdf:RDF>
  </metadata>
  <g
     id="layer1"
     inkscape:label="Layer 1"
     inkscape:groupmode="layer"
     transform="translate(0,-8)">
    <rect
       style="fill:#333333;fill-opacity:1;stroke:none"
       id="rect7330"
       width="40"
       height="40"
       x="0"
       y="0"
       transform="translate(0,8)"
       ry="0" />
  </g>
  <g
     inkscape:groupmode="layer"
     id="layer2"
     inkscape:label="Layer"
     style="display:inline">
    <path
       style="fill:#cccccc;fill-opacity:1;stroke:none"
       d="M 0,0 4,0 C 4.554,0 5,0.446 5,1 L 5,4 C 5,4.554 4.554,5 4,5 L 0,5 z"
       id="rect7294"
       inkscape:connector-curvature="0"
       sodipodi:nodetypes="csssscc" />
    <rect
       style="fill:#bfbfbf;fill-opacity:1;stroke:none"
       id="rect7296"
       width="10"
       height="5"
       x="5"
       y="0"
       ry="1" />
    <rect
       style="fill:#cccccc;fill-opacity:1;stroke:none"
       id="rect7298"
       width="10"
       height="5"
       x="15"
       y="0"
       ry="1" />
    <rect
       style="fill:#b2b2b2;fill-opacity:1;stroke:none"
       id="rect7300"
       width="10"
       height="5"
       x="25"
       y="0"
       ry="1" />
    <path
       style="fill:#cccccc;fill-opacity:1;stroke:none"
       d="m 36,0 4,0 0,5 -4,0 C 35.446,5 35,4.554 35,4 l 0,-3 c 0,-0.554 0.446,-1 1,-1 z"
       id="rect7302"
       inkscape:connector-curvature="0"
       sodipodi:nodetypes="sccssss" />
    <rect
       style="fill:#a6a6a6;fill-opacity:1;stroke:none"
       id="rect7304"
       width="10"
       height="5"
       x="30"
       y="5"
       ry="1" />
    <rect
       style="fill:#bfbfbf;fill-opacity:1;stroke:none"
       id="rect7306"
       width="10"
       height="5"
       x="20"
       y="5"
       ry="1" />
    <rect
       style="fill:#b2b2b2;fill-opacity:1;stroke:none"
       id="rect7308"
       width="10"
       height="5"
       x="10"
       y="5"
       ry="1" />
    <rect
       style="fill:#cccccc;fill-opacity:1;stroke:none"
       id="rect7310"
       width="10"
       height="5"
       x="0"
       y="5"
       ry="1" />
    <path
       style="fill:#666666;fill-opacity:1;stroke:none"
       d="m 0,40 4,0 c 0.554,0 1,-0.446 1,-1 L 5,36 C 5,35.446 4.554,35 4,35 l -4,0 z"
       id="rect7312"
       inkscape:connector-curvature="0"
       sodipodi:nodetypes="csssscc" />
    <rect
       ry="1"
       transform="scale(1,-1)"
       y="-40"
       x="5"
       height="5"
       width="10"
       id="rect7314"
       style="fill:#5e5e5e;fill-opacity:1;stroke:none" />
    <rect
       ry="1"
       transform="scale(1,-1)"
       y="-40"
       x="15"
       height="5"
       width="10"
       id="rect7316"
       style="fill:#595959;fill-opacity:1;stroke:none" />
    <rect
       ry="1"
       transform="scale(1,-1)"
       y="-40"
       x="25"
       height="5"
       width="10"
       id="rect7318"
       style="fill:#525252;fill-opacity:1;stroke:none" />
    <path
       style="fill:#666666;fill-opacity:1;stroke:none"
       d="m 36,40 4,0 0,-5 -4,0 c -0.554,0 -1,0.446 -1,1 l 0,3 c 0,0.554 0.446,1 1,1 z"
       id="rect7320"
       inkscape:connector-curvature="0"
       sodipodi:nodetypes="sccssss" />
    <rect
       ry="1"
       transform="scale(1,-1)"
       y="-35"
       x="30"
       height="5"
       width="10"
       id="rect7322"
       style="fill:#636363;fill-opacity:1;stroke:none" />
    <rect
       ry="1"
       transform="scale(1,-1)"
       y="-35"
       x="20"
       height="5"
       width="10"
       id="rect7324"
       style="fill:#5e5e5e;fill-opacity:1;stroke:none" />
    <rect
       ry="1"
       transform="scale(1,-1)"
       y="-35"
       x="10"
       height="5"
       width="10"
       id="rect7326"
       style="fill:#666666;fill-opacity:1;stroke:none" />
    <rect
       ry="1"
       transform="scale(1,-1)"
       y="-35"
       x="0"
       height="5"
       width="10"
       id="rect7328"
       style="fill:#595959;fill-opacity:1;stroke:none" />
    <rect
       style="fill:#999999;fill-opacity:1;stroke:none"
       id="rect7332"
       width="20"
       height="10"
       x="0"
       y="10"
       ry="2" />
    <rect
       style="fill:#8c8c8c;fill-opacity:1;stroke:none"
       id="rect7336"
       width="20"
       height="10"
       x="20"
       y="10"
       ry="2" />
    <path
       style="fill:#999999;fill-opacity:1;stroke:none"
       d="m 0,20 8,0 c 1.108,0 2,0.892 2,2 l 0,6 c 0,1.108 -0.892,2 -2,2 l -8,0 z"
       id="rect7338"
       inkscape:connector-curvature="0"
       sodipodi:nodetypes="ccssscc" />
    <rect
       style="fill:#808080;fill-opacity:1;stroke:none"
       id="rect7340"
       width="20"
       height="10"
       x="10"
       y="20"
       ry="2" />
    <path
       style="fill:#999999;fill-opacity:1;stroke:none"
       d="m 32,20 8,0 0,10 -8,0 c -1.108,0 -2,-0.892 -2,-2 l 0,-6 c 0,-1.108 0.892,-2 2,-2 z"
       id="rect7342"
       inkscape:connector-curvature="0"
       sodipodi:nodetypes="sccssss" />
  </g>
</svg>
